<?xml version="1.0" encoding="UTF-8"?>
<svg width="1200pt" height="1200pt" version="1.1" viewBox="0 0 1200 1200" xmlns="http://www.w3.org/2000/svg">
 <g>
  <path d="m637.5 187.5c0-20.699-16.801-37.5-37.5-37.5s-37.5 16.801-37.5 37.5v150c0 20.699 16.801 37.5 37.5 37.5s37.5-16.801 37.5-37.5z"/>
  <path d="m600 825c-20.699 0-37.5 16.801-37.5 37.5v150c0 20.699 16.801 37.5 37.5 37.5s37.5-16.801 37.5-37.5v-150c0-20.699-16.801-37.5-37.5-37.5z"/>
  <path d="m785.61 451.89c9.6016 0 19.199-3.6562 26.512-10.988l106.07-106.07c14.645-14.645 14.645-38.383 0-53.023-14.645-14.645-38.398-14.645-53.023 0l-106.07 106.07c-14.645 14.645-14.645 38.383 0 53.023 7.332 7.332 16.914 10.988 26.512 10.988z"/>
  <path d="m387.88 759.09-106.07 106.07c-14.645 14.645-14.645 38.383 0 53.023 7.332 7.332 16.914 10.988 26.512 10.988 9.6016 0 19.199-3.6562 26.512-10.988l106.07-106.07c14.645-14.645 14.645-38.383 0-53.023-14.645-14.645-38.398-14.645-53.023 0z"/>
  <path d="m1050 600c0-20.699-16.801-37.5-37.5-37.5h-150c-20.699 0-37.5 16.801-37.5 37.5s16.801 37.5 37.5 37.5h150c20.699 0 37.5-16.801 37.5-37.5z"/>
  <path d="m187.5 637.5h150c20.699 0 37.5-16.801 37.5-37.5s-16.801-37.5-37.5-37.5h-150c-20.699 0-37.5 16.801-37.5 37.5s16.801 37.5 37.5 37.5z"/>
  <path d="m759.09 812.12 106.07 106.07c7.3125 7.332 16.914 10.988 26.512 10.988 9.6016 0 19.18-3.6562 26.512-10.988 14.645-14.645 14.645-38.383 0-53.023l-106.07-106.07c-14.625-14.645-38.383-14.645-53.023 0-14.645 14.645-14.645 38.383 0 53.023z"/>
  <path d="m440.91 387.88-106.07-106.07c-14.625-14.645-38.383-14.645-53.023 0-14.645 14.645-14.645 38.383 0 53.023l106.07 106.07c7.3125 7.332 16.914 10.988 26.512 10.988 9.6016 0 19.18-3.6562 26.512-10.988 14.645-14.645 14.645-38.383 0-53.023z"/>
 </g>
</svg>
